<svg xmlns="http://www.w3.org/2000/svg" xml:space="preserve" viewBox="0 0 24 24" id="Css">
  <path d="M20.37 5.164A.498.498 0 0 0 20 5H4a.498.498 0 0 0-.498.547l1.5 16c.02.205.163.377.361.434l7 2a.492.492 0 0 0 .295-.007l6-2a.5.5 0 0 0 .34-.427l1.5-16a.503.503 0 0 0-.128-.383zM8.515 18.622l-.5-2a.5.5 0 0 1 .97-.244l.36 1.44a.5.5 0 0 0 .348.36l2.67.763a.51.51 0 0 0 .274 0l2.58-.737a.502.502 0 0 0 .36-.426l.358-3.223a.5.5 0 0 0-.497-.555H8a.5.5 0 0 1 0-1h7.661a.5.5 0 0 0 .497-.445l.222-2a.5.5 0 0 0-.497-.555H7.5a.5.5 0 0 1 0-1H17a.502.502 0 0 1 .497.556l-1 9a.497.497 0 0 1-.359.425l-3.501 1a.5.5 0 0 1-.274 0l-3.5-1a.5.5 0 0 1-.348-.359zM7 3h2a.5.5 0 0 0 0-1H7.5V1H9a.5.5 0 0 0 0-1H7a.5.5 0 0 0-.5.5v2A.5.5 0 0 0 7 3zM10.5 2.5a.5.5 0 0 0 .5.5h2a.5.5 0 0 0 .354-.854L12.207 1H13a.5.5 0 0 0 0-1h-2a.5.5 0 0 0-.354.854L11.793 2H11a.5.5 0 0 0-.5.5zM14.5 2.5a.5.5 0 0 0 .5.5h2a.5.5 0 0 0 .354-.854L16.207 1H17a.5.5 0 0 0 0-1h-2a.5.5 0 0 0-.354.854L15.793 2H15a.5.5 0 0 0-.5.5z" fill="#34a853" class="color000000 svgShape"></path>
</svg>
