<svg xmlns="http://www.w3.org/2000/svg" xmlns:xlink="http://www.w3.org/1999/xlink" viewBox="0 0 24 24"><path d="M 0 12.167 L 9.344 12.167 C 10 12.178 10.611 12.456 11.056 12.933 L 11.067 12.944 C 11.544 13.389 11.822 14.011 11.833 14.656 L 11.833 24 L 12.167 24 L 12.167 14.656 C 12.178 14 12.456 13.389 12.933 12.944 L 12.944 12.933 C 13.389 12.456 14.011 12.178 14.656 12.167 L 24 12.167 L 24 11.833 L 14.656 11.833 C 14 11.822 13.389 11.544 12.944 11.067 L 12.933 11.056 C 12.456 10.611 12.178 9.989 12.167 9.344 L 12.167 0 L 11.833 0 L 11.833 9.344 C 11.822 10 11.544 10.611 11.067 11.056 L 11.056 11.067 C 10.611 11.544 9.989 11.822 9.344 11.833 L 0 11.833 Z M 12 11 C 12.556 11 13 11.444 13 12 C 13 12.556 12.556 13 12 13 C 11.444 13 11 12.556 11 12 C 11 11.444 11.444 11 12 11 Z" fill="rgb(23, 23, 23)"></path></svg>