<svg xmlns="http://www.w3.org/2000/svg" viewBox="0 0 48 48" id="Js">
  <g display="none" fill="#ea4335" class="color000000 svgShape">
    <rect width="48" height="48" fill="#4285f4" color="#000" overflow="visible" style="isolation:auto;mix-blend-mode:normal" class="colorffffff svgShape"></rect>
    <rect width="48" height="48" x="-46.987" fill="#4285f4" color="#000" overflow="visible" style="isolation:auto;mix-blend-mode:normal" class="colorffffff svgShape"></rect>
    <rect width="48" height="48" x="-102.987" fill="#4285f4" color="#000" overflow="visible" style="isolation:auto;mix-blend-mode:normal" class="colorffffff svgShape"></rect>
    <rect width="48" height="48" y="57.592" fill="#4285f4" color="#000" overflow="visible" style="isolation:auto;mix-blend-mode:normal" class="colorffffff svgShape"></rect>
    <rect width="48" height="48" x="-46.987" y="57.592" fill="#4285f4" color="#000" overflow="visible" style="isolation:auto;mix-blend-mode:normal" class="colorffffff svgShape"></rect>
    <rect width="48" height="48" x="-102.987" y="57.592" fill="#4285f4" color="#000" overflow="visible" style="isolation:auto;mix-blend-mode:normal" class="colorffffff svgShape"></rect>
    <rect width="48" height="48" y="117.592" fill="#4285f4" color="#000" overflow="visible" style="isolation:auto;mix-blend-mode:normal" class="colorffffff svgShape"></rect>
    <rect width="48" height="48" x="-46.987" y="117.592" fill="#4285f4" color="#000" overflow="visible" style="isolation:auto;mix-blend-mode:normal" class="colorffffff svgShape"></rect>
    <rect width="48" height="48" x="-102.987" y="117.592" fill="#4285f4" color="#000" overflow="visible" style="isolation:auto;mix-blend-mode:normal" class="colorffffff svgShape"></rect>
    <rect width="48" height="48" y="173.592" fill="#4285f4" color="#000" overflow="visible" style="isolation:auto;mix-blend-mode:normal" class="colorffffff svgShape"></rect>
    <rect width="48" height="48" x="-46.987" y="173.592" fill="#4285f4" color="#000" overflow="visible" style="isolation:auto;mix-blend-mode:normal" class="colorffffff svgShape"></rect>
    <rect width="48" height="48" x="-102.987" y="173.592" fill="#4285f4" color="#000" overflow="visible" style="isolation:auto;mix-blend-mode:normal" class="colorffffff svgShape"></rect>
    <rect width="48" height="48" y="231.592" fill="#4285f4" color="#000" overflow="visible" style="isolation:auto;mix-blend-mode:normal" class="colorffffff svgShape"></rect>
    <rect width="48" height="48" x="-46.987" y="231.592" fill="#4285f4" color="#000" overflow="visible" style="isolation:auto;mix-blend-mode:normal" class="colorffffff svgShape"></rect>
    <rect width="48" height="48" x="-102.987" y="231.592" fill="#4285f4" color="#000" overflow="visible" style="isolation:auto;mix-blend-mode:normal" class="colorffffff svgShape"></rect>
  </g>
  <g transform="translate(-955 -1560.362)" fill="#ea4335" class="color000000 svgShape">
    <path fill="#fbbc05" d="m 981,1562.3622 c -0.554,0 -1,0.446 -1,1 l 0,1 c 0,0.554 0.446,1 1,1 l 10.0039,0 0.016,6.4844 c 0,0.8253 0.6708,1.4938 1.4961,1.4961 l 6.4844,0.017 0,28.502 c 0,0.8569 -0.6431,1.5 -1.5,1.5 l -23,0 c -0.857,0 -1.5,-0.6431 -1.5,-1.5 l 0,-1.5 c 0,-0.554 -0.446,-1 -1,-1 l -1,0 c -0.554,0 -1,0.446 -1,1 l 0,1.5 c 0,2.4671 2.0329,4.5 4.5,4.5 l 23,0 c 2.467,0 4.5,-2.0329 4.5,-4.5 l 0,-30.4863 c -10e-5,-0.3978 -0.1582,-0.7793 -0.4395,-1.0606 l -7.5137,-7.5136 c -0.2812,-0.2814 -0.6627,-0.4394 -1.0605,-0.4395 z m -11,21 c 0,0.554 0.446,1 1,1 l 1,0 c 0.554,0 1,-0.446 1,-1 l 0,-10 c 0,-0.554 -0.446,-1 -1,-1 l -1,0 c -0.554,0 -1,0.446 -1,1 z" color="#000" font-family="sans-serif" font-weight="400" overflow="visible" style="line-height:normal;text-indent:0;text-align:start;text-decoration-line:none;text-decoration-style:solid;text-decoration-color:#000;text-transform:none;block-progression:tb;isolation:auto;mix-blend-mode:normal" class="color242730 svgShape"></path>
    <path fill="#34a853" d="m 974.5,558 c -2.467,0 -4.5,2.0329 -4.5,4.5 l 0,2.5 c 0,0.554 0.446,1 1,1 l 1,0 c 0.554,0 1,-0.446 1,-1 l 0,-2.5 c 0,-0.8569 0.6431,-1.5 1.5,-1.5 l 2.5,0 c 0.554,0 1,-0.446 1,-1 l 0,-1 c 0,-0.554 -0.446,-1 -1,-1 l -2.5,0 z M 959,582 c -1.108,0 -2,0.892 -2,2 l 0,7 c 0,1.108 0.892,2 2,2 l 25,0 c 1.108,0 2,-0.892 2,-2 l 0,-7 c 0,-1.108 -0.892,-2 -2,-2 l -25,0 z m 15.33008,2.58594 c 0.4297,0 0.8197,0.0859 1.2207,0.25781 0.105,-0.2289 0.22072,-0.25781 0.47852,-0.25781 0.3055,0 0.38062,0.0969 0.39062,0.49804 l 0.0195,0.89649 0,0.0488 c 0,0.3533 -0.11571,0.49609 -0.47851,0.49609 -0.382,0 -0.41871,-0.21025 -0.53321,-0.43945 -0.191,-0.3724 -0.5258,-0.58203 -0.97461,-0.58203 -0.58249,0 -0.93554,0.3056 -0.93554,0.6875 0,0.487 0.53354,0.53387 1.49804,0.73437 1.1554,0.2387 1.70118,0.75587 1.70118,1.70117 0,1.1459 -0.80251,1.78516 -2.25391,1.78516 -0.4768,0 -0.91604,-0.05 -1.40234,-0.23047 -0.1051,0.1812 -0.22936,0.23047 -0.43946,0.23047 -0.3819,0 -0.52515,-0.11436 -0.53515,-0.50586 l -0.0293,-1.09961 0,-0.0469 c 0,-0.401 0.13389,-0.55469 0.52539,-0.55469 0.3629,0 0.41013,0.26736 0.58203,0.60156 0.2483,0.487 0.66863,0.7168 1.29883,0.7168 0.5634,0 0.90625,-0.23854 0.90625,-0.67774 0,-0.6016 -0.53368,-0.602 -1.58398,-0.8789 -1.0504,-0.2769 -1.60352,-0.63088 -1.60352,-1.57618 0,-1.05999 0.87844,-1.80468 2.14844,-1.80468 z m -5.98438,0.16406 2.37891,0 c 0.3915,0 0.5918,0.10476 0.5918,0.50586 0,0.3915 -0.2003,0.50586 -0.5918,0.50586 l -0.39258,0 0,2.58789 0,0.0859 c 0,0.5634 -0.01,1.01084 -0.35351,1.40234 -0.3246,0.3724 -0.9249,0.57422 -1.7461,0.57422 -0.592,0 -1.11847,-0.10488 -1.60547,-0.33399 -0.2477,-0.1146 -0.34375,-0.24916 -0.34375,-0.72656 l 0,-0.96484 c 0,-0.4965 0.12456,-0.71484 0.53516,-0.71484 0.4679,0 0.42075,0.36283 0.46875,0.77343 0.067,0.6302 0.21805,0.93555 0.87695,0.93555 0.7734,0 0.95508,-0.41099 0.95508,-1.30859 l 0,-2.30079 -0.77344,0 c -0.3915,0 -0.59179,-0.12412 -0.59179,-0.51562 0,-0.3915 0.20029,-0.50586 0.59179,-0.50586 z" color="#000" font-family="sans-serif" font-weight="400" overflow="visible" style="line-height:normal;text-indent:0;text-align:start;text-decoration-line:none;text-decoration-style:solid;text-decoration-color:#000;text-transform:none;block-progression:tb;isolation:auto;mix-blend-mode:normal" transform="translate(0 1004.362)" class="color11c111 svgShape"></path>
  </g>
</svg>
